<?xml version="1.0" encoding="UTF-8"?>
<!-- Generator: Adobe Illustrator 19.1.0, SVG Export Plug-In . SVG Version: 6.00 Build 0)  -->
<svg xmlns="http://www.w3.org/2000/svg" xmlns:xlink="http://www.w3.org/1999/xlink" xmlns:dc="http://purl.org/dc/elements/1.1/" xmlns:cc="http://creativecommons.org/ns#" xmlns:rdf="http://www.w3.org/1999/02/22-rdf-syntax-ns#" version="1.1" id="DESIGNS" x="0px" y="0px" width="32px" height="32px" viewBox="0 0 32 32" style="enable-background:new 0 0 32 32;" xml:space="preserve">
<title property="dc:title">to clip</title><desc property="dc:description">An icon for "clip" from the Lines and Angles series on to [icon]. Downloaded from http://www.toicon.com/icons/lines-and-angles_clip by 213.127.53.189 on 2018-05-10. Licensed CC-BY, see http://toicon.com/license/ for details.</desc>
<path class="linesandangles_een" d="M27.41,5.586c-1.021-1.021-2.363-1.532-3.705-1.532S21.021,4.564,20,5.586L8.153,17.431  c-1.216,1.216-1.216,3.196,0.002,4.414c1.217,1.217,3.195,1.217,4.412,0l8.26-8.26l-1.414-1.414l-8.26,8.26  c-0.437,0.436-1.146,0.437-1.586-0.002c-0.437-0.437-0.437-1.147,0-1.584L21.414,7C22.678,5.738,24.732,5.737,26,7.004  c1.263,1.263,1.263,3.319,0,4.582L14.151,23.433c-2.091,2.089-5.491,2.089-7.586-0.006c-2.09-2.09-2.09-5.49,0-7.58L16.828,5.586  l-1.414-1.414L5.151,14.433c-2.87,2.87-2.87,7.539,0.006,10.414c2.869,2.87,7.539,2.87,10.408,0L27.414,13  C29.457,10.957,29.457,7.633,27.41,5.586z" style="fill: #111918;"/>
<metadata><work rdf:about=""><format>image/svg+xml</format><type rdf:resource="http://purl.org/dc/dcmitype/StillImage"/><license rdf:resource="http://creativecommons.org/licenses/by/4.0/"/><attributionname>Shannon E Thomas</attributionname><attributionurl>http://www.toicon.com/icons/lines-and-angles_clip</attributionurl></work></metadata></svg>
