<?xml version="1.0" encoding="UTF-8"?>
<!-- Generator: Adobe Illustrator 19.1.0, SVG Export Plug-In . SVG Version: 6.00 Build 0)  -->
<svg xmlns="http://www.w3.org/2000/svg" xmlns:xlink="http://www.w3.org/1999/xlink" xmlns:dc="http://purl.org/dc/elements/1.1/" xmlns:cc="http://creativecommons.org/ns#" xmlns:rdf="http://www.w3.org/1999/02/22-rdf-syntax-ns#" version="1.1" id="DESIGNS" x="0px" y="0px" width="32px" height="32px" viewBox="0 0 32 32" style="enable-background:new 0 0 32 32;" xml:space="preserve">
<title property="dc:title">to sing</title><desc property="dc:description">An icon for "sing" from the Lines and Angles series on to [icon]. Downloaded from http://www.toicon.com/icons/lines-and-angles_sing by 213.127.53.189 on 2018-05-09. Licensed CC-BY, see http://toicon.com/license/ for details.</desc>
<path class="linesandangles_een" d="M26,3.674L10,8.246v13.933c-0.383-0.135-0.797-0.215-1.231-0.215  c-0.342,0-0.693,0.045-1.045,0.139c-1.867,0.5-3.033,2.203-2.604,3.804c0.348,1.299,1.639,2.131,3.112,2.131  c0.342,0,0.693-0.045,1.045-0.139C10.792,27.492,11.886,26.292,12,25l0,0V13.754l12-3.429v7.853  c-0.383-0.135-0.797-0.215-1.231-0.215c-0.342,0-0.693,0.045-1.045,0.139c-1.867,0.5-3.033,2.203-2.604,3.804  c0.348,1.299,1.639,2.131,3.112,2.131c0.342,0,0.693-0.045,1.045-0.139C24.792,23.492,25.886,22.292,26,21l0,0V3.674z M9.789,25.279  c-0.219,0.32-0.595,0.571-1.031,0.687c-0.176,0.047-0.353,0.071-0.528,0.071c-0.583,0-1.079-0.273-1.18-0.649  c-0.069-0.258,0.049-0.505,0.16-0.667c0.219-0.32,0.595-0.571,1.031-0.687c0.176-0.047,0.353-0.071,0.528-0.071  c0.583,0,1.079,0.273,1.18,0.649C10.018,24.869,9.9,25.117,9.789,25.279z M12,11.674v-1.92l12-3.429v1.92L12,11.674z M23.789,21.279  c-0.219,0.32-0.595,0.571-1.031,0.687c-0.176,0.047-0.353,0.071-0.528,0.071c-0.583,0-1.079-0.273-1.18-0.649  c-0.069-0.258,0.049-0.505,0.16-0.667c0.219-0.32,0.595-0.571,1.031-0.687c0.176-0.047,0.353-0.071,0.528-0.071  c0.583,0,1.079,0.273,1.18,0.649C24.018,20.869,23.9,21.117,23.789,21.279z" style="fill: #111918;"/>
<metadata><work rdf:about=""><format>image/svg+xml</format><type rdf:resource="http://purl.org/dc/dcmitype/StillImage"/><license rdf:resource="http://creativecommons.org/licenses/by/4.0/"/><attributionname>Shannon E Thomas</attributionname><attributionurl>http://www.toicon.com/icons/lines-and-angles_sing</attributionurl></work></metadata></svg>
