<?xml version="1.0" encoding="UTF-8"?>
<!-- Generator: Adobe Illustrator 19.1.0, SVG Export Plug-In . SVG Version: 6.00 Build 0)  -->
<svg xmlns="http://www.w3.org/2000/svg" xmlns:xlink="http://www.w3.org/1999/xlink" xmlns:dc="http://purl.org/dc/elements/1.1/" xmlns:cc="http://creativecommons.org/ns#" xmlns:rdf="http://www.w3.org/1999/02/22-rdf-syntax-ns#" version="1.1" id="DESIGNS" x="0px" y="0px" width="32px" height="32px" viewBox="0 0 32 32" style="enable-background:new 0 0 32 32;" xml:space="preserve">
<title property="dc:title">to locate</title><desc property="dc:description">An icon for "locate" from the Lines and Angles series on to [icon]. Downloaded from http://www.toicon.com/icons/lines-and-angles_locate by 213.127.53.189 on 2018-05-09. Licensed CC-BY, see http://toicon.com/license/ for details.</desc>
<path class="linesandangles_een" d="M16,8c-2.757,0-5,2.243-5,5s2.243,5,5,5s5-2.243,5-5S18.757,8,16,8z M16,16  c-1.654,0-3-1.346-3-3s1.346-3,3-3s3,1.346,3,3S17.654,16,16,16z M16,6c3.86,0,7,3.14,7,7c0,5.271-4.719,10.256-7.009,12.365  C13.299,22.889,9,17.901,9,13C9,9.14,12.14,6,16,6 M16,4c-4.971,0-9,4.029-9,9c0,8,9,15,9,15s9-6.984,9-15C25,8.029,20.971,4,16,4  L16,4z" style="fill: #111918;"/>
<metadata><work rdf:about=""><format>image/svg+xml</format><type rdf:resource="http://purl.org/dc/dcmitype/StillImage"/><license rdf:resource="http://creativecommons.org/licenses/by/4.0/"/><attributionname>Shannon E Thomas</attributionname><attributionurl>http://www.toicon.com/icons/lines-and-angles_locate</attributionurl></work></metadata></svg>
