<?xml version="1.0" encoding="UTF-8"?>
<!-- Generator: Adobe Illustrator 19.1.0, SVG Export Plug-In . SVG Version: 6.00 Build 0)  -->
<svg xmlns="http://www.w3.org/2000/svg" xmlns:xlink="http://www.w3.org/1999/xlink" xmlns:dc="http://purl.org/dc/elements/1.1/" xmlns:cc="http://creativecommons.org/ns#" xmlns:rdf="http://www.w3.org/1999/02/22-rdf-syntax-ns#" version="1.1" id="DESIGNS" x="0px" y="0px" width="32px" height="32px" viewBox="0 0 32 32" style="enable-background:new 0 0 32 32;" xml:space="preserve">
<title property="dc:title">to like</title><desc property="dc:description">An icon for "like" from the Lines and Angles series on to [icon]. Downloaded from http://www.toicon.com/icons/lines-and-angles_like by 213.127.53.189 on 2018-05-09. Licensed CC-BY, see http://toicon.com/license/ for details.</desc>
<path class="linesandangles_een" d="M10.5,8v2C9.122,10,8,11.121,8,12.5H6C6,10.019,8.019,8,10.5,8z" style="fill: #111918;"/>
<path class="linesandangles_een" d="M21.5,5c-2.116,0-4.093,0.881-5.5,2.406C14.593,5.881,12.616,5,10.5,5C6.364,5,3,8.333,3,12.5  C3,21.542,16,27,16,27s13-5.458,13-14.5C29,8.333,25.636,5,21.5,5z M16,24.797C13.378,23.521,5,18.938,5,12.5  C5,9.467,7.467,7,10.5,7c1.55,0,2.982,0.626,4.03,1.762l0.735,0.797h1.47l0.735-0.797C18.518,7.626,19.95,7,21.5,7  c3.033,0,5.5,2.467,5.5,5.5C27,18.938,18.622,23.521,16,24.797z" style="fill: #111918;"/>
<metadata><work rdf:about=""><format>image/svg+xml</format><type rdf:resource="http://purl.org/dc/dcmitype/StillImage"/><license rdf:resource="http://creativecommons.org/licenses/by/4.0/"/><attributionname>Shannon E Thomas</attributionname><attributionurl>http://www.toicon.com/icons/lines-and-angles_like</attributionurl></work></metadata></svg>
