<?xml version="1.0" encoding="UTF-8"?>
<!-- Generator: Adobe Illustrator 19.1.0, SVG Export Plug-In . SVG Version: 6.00 Build 0)  -->
<svg xmlns="http://www.w3.org/2000/svg" xmlns:xlink="http://www.w3.org/1999/xlink" xmlns:dc="http://purl.org/dc/elements/1.1/" xmlns:cc="http://creativecommons.org/ns#" xmlns:rdf="http://www.w3.org/1999/02/22-rdf-syntax-ns#" version="1.1" id="DESIGNS" x="0px" y="0px" width="32px" height="32px" viewBox="0 0 32 32" style="enable-background:new 0 0 32 32;" xml:space="preserve">
<title property="dc:title">to write</title><desc property="dc:description">An icon for "write" from the Lines and Angles series on to [icon]. Downloaded from http://www.toicon.com/icons/lines-and-angles_write by 213.127.53.189 on 2018-05-09. Licensed CC-BY, see http://toicon.com/license/ for details.</desc>
<path class="linesandangles_een" d="M19,11H9V9h10V11z M23,19.414V27H5V5h18v3.586L28.414,14L23,19.414z M23.086,16.5L20.5,13.914  l-4.5,4.5V21h2.586L23.086,16.5z M23,11.414L21.914,12.5l2.586,2.586L25.586,14L23,11.414z M21,21.414L19.414,23H9v-2h5v-2H9v-2  h5.586l2-2H9v-2h9.586L21,10.586V7H7v18h14V21.414z" style="fill: #111918;"/>
<metadata><work rdf:about=""><format>image/svg+xml</format><type rdf:resource="http://purl.org/dc/dcmitype/StillImage"/><license rdf:resource="http://creativecommons.org/licenses/by/4.0/"/><attributionname>Shannon E Thomas</attributionname><attributionurl>http://www.toicon.com/icons/lines-and-angles_write</attributionurl></work></metadata></svg>
