<?xml version="1.0" encoding="UTF-8"?>
<!-- Generator: Adobe Illustrator 19.1.0, SVG Export Plug-In . SVG Version: 6.00 Build 0)  -->
<svg xmlns="http://www.w3.org/2000/svg" xmlns:xlink="http://www.w3.org/1999/xlink" xmlns:dc="http://purl.org/dc/elements/1.1/" xmlns:cc="http://creativecommons.org/ns#" xmlns:rdf="http://www.w3.org/1999/02/22-rdf-syntax-ns#" version="1.1" id="DESIGNS" x="0px" y="0px" width="32px" height="32px" viewBox="0 0 32 32" style="enable-background:new 0 0 32 32;" xml:space="preserve">
<title property="dc:title">to photograph</title><desc property="dc:description">An icon for "photograph" from the Lines and Angles series on to [icon]. Downloaded from http://www.toicon.com/icons/lines-and-angles_photograph by 213.127.53.189 on 2018-05-09. Licensed CC-BY, see http://toicon.com/license/ for details.</desc>
<path class="linesandangles_een" d="M14,8V4H4v24h24V8H14z M12,6v4h14v5h-3.685c-1.126-2.361-3.53-4-6.315-4s-5.189,1.639-6.315,4H6  V6H12z M16,13c2.757,0,5,2.243,5,5s-2.243,5-5,5s-5-2.243-5-5S13.243,13,16,13z M6,26v-9h3.08C9.033,17.328,9,17.66,9,18  c0,3.859,3.14,7,7,7s7-3.141,7-7c0-0.34-0.033-0.672-0.08-1H26v9H6z M11,10H7V7h4V10z" style="fill: #111918;"/>
<metadata><work rdf:about=""><format>image/svg+xml</format><type rdf:resource="http://purl.org/dc/dcmitype/StillImage"/><license rdf:resource="http://creativecommons.org/licenses/by/4.0/"/><attributionname>Shannon E Thomas</attributionname><attributionurl>http://www.toicon.com/icons/lines-and-angles_photograph</attributionurl></work></metadata></svg>
