<?xml version="1.0" encoding="UTF-8"?>
<!-- Generator: Adobe Illustrator 19.1.0, SVG Export Plug-In . SVG Version: 6.00 Build 0)  -->
<svg xmlns="http://www.w3.org/2000/svg" xmlns:xlink="http://www.w3.org/1999/xlink" xmlns:dc="http://purl.org/dc/elements/1.1/" xmlns:cc="http://creativecommons.org/ns#" xmlns:rdf="http://www.w3.org/1999/02/22-rdf-syntax-ns#" version="1.1" id="DESIGNS" x="0px" y="0px" width="32px" height="32px" viewBox="0 0 32 32" style="enable-background:new 0 0 32 32;" xml:space="preserve">
<title property="dc:title">to sync</title><desc property="dc:description">An icon for "sync" from the Lines and Angles series on to [icon]. Downloaded from http://www.toicon.com/icons/lines-and-angles_sync by 213.127.53.189 on 2018-05-09. Licensed CC-BY, see http://toicon.com/license/ for details.</desc>
<path class="linesandangles_een" d="M20.95,20.949l1.414,1.414C20.665,24.063,18.404,25,16,25c-4.962,0-9-4.037-9-9v-0.586  l-2.293,2.293l-1.414-1.414L8,11.586l4.707,4.707l-1.414,1.414L9,15.414V16c0,3.859,3.14,7,7,7C17.87,23,19.628,22.271,20.95,20.949  z M27.293,14.293L25,16.586V16c0-4.963-4.038-9-9-9c-2.404,0-4.665,0.937-6.364,2.637l1.414,1.414C12.372,9.729,14.13,9,16,9  c3.86,0,7,3.141,7,7v0.586l-2.293-2.293l-1.414,1.414L24,20.414l4.707-4.707L27.293,14.293z" style="fill: #111918;"/>
<metadata><work rdf:about=""><format>image/svg+xml</format><type rdf:resource="http://purl.org/dc/dcmitype/StillImage"/><license rdf:resource="http://creativecommons.org/licenses/by/4.0/"/><attributionname>Shannon E Thomas</attributionname><attributionurl>http://www.toicon.com/icons/lines-and-angles_sync</attributionurl></work></metadata></svg>
