<?xml version="1.0" encoding="UTF-8"?>
<!-- Generator: Adobe Illustrator 19.1.0, SVG Export Plug-In . SVG Version: 6.00 Build 0)  -->
<svg xmlns="http://www.w3.org/2000/svg" xmlns:xlink="http://www.w3.org/1999/xlink" xmlns:dc="http://purl.org/dc/elements/1.1/" xmlns:cc="http://creativecommons.org/ns#" xmlns:rdf="http://www.w3.org/1999/02/22-rdf-syntax-ns#" version="1.1" id="DESIGNS" x="0px" y="0px" width="32px" height="32px" viewBox="0 0 32 32" style="enable-background:new 0 0 32 32;" xml:space="preserve">
<title property="dc:title">to turn</title><desc property="dc:description">An icon for "turn" from the Lines and Angles series on to [icon]. Downloaded from http://www.toicon.com/icons/lines-and-angles_turn by 213.127.53.189 on 2018-05-10. Licensed CC-BY, see http://toicon.com/license/ for details.</desc>
<path class="linesandangles_een" d="M28,19v-6h-2.459c-0.177-0.564-0.408-1.104-0.677-1.621l1.743-1.743l-4.243-4.243  l-1.743,1.743c-0.516-0.27-1.056-0.5-1.621-0.677V4h-6v2.459c-0.564,0.177-1.104,0.408-1.621,0.677L9.636,5.393L5.393,9.636  l1.743,1.743c-0.27,0.516-0.5,1.056-0.677,1.621H4v6h2.459c0.177,0.564,0.408,1.104,0.677,1.621l-1.743,1.743l4.243,4.243  l1.743-1.743c0.516,0.27,1.056,0.5,1.621,0.677V28h6v-2.459c0.564-0.177,1.104-0.408,1.621-0.677l1.743,1.743l4.243-4.243  l-1.743-1.743c0.27-0.516,0.5-1.056,0.677-1.621H28z M24.073,17l-0.44,1.401c-0.134,0.427-0.317,0.863-0.542,1.294l-0.68,1.302  l1.368,1.368l-1.414,1.414l-1.368-1.368l-1.302,0.68c-0.431,0.225-0.867,0.408-1.294,0.542L17,24.073V26h-2v-1.927l-1.401-0.44  c-0.427-0.134-0.863-0.317-1.294-0.542l-1.302-0.68l-1.368,1.368l-1.414-1.414l1.368-1.368l-0.68-1.302  c-0.225-0.431-0.408-0.867-0.542-1.294L7.927,17H6v-2h1.927l0.44-1.401c0.134-0.427,0.317-0.863,0.542-1.294l0.68-1.302L8.222,9.636  l1.414-1.414l1.368,1.368l1.302-0.68c0.431-0.225,0.867-0.408,1.294-0.542L15,7.927V6h2v1.927l1.401,0.44  c0.427,0.134,0.863,0.317,1.294,0.542l1.302,0.68l1.368-1.368l1.414,1.414l-1.368,1.368l0.68,1.302  c0.225,0.431,0.408,0.867,0.542,1.294L24.073,15H26v2H24.073z M16,13c-1.657,0-3,1.343-3,3s1.343,3,3,3s3-1.343,3-3S17.657,13,16,13  z M16,17c-0.551,0-1-0.449-1-1s0.449-1,1-1s1,0.449,1,1S16.551,17,16,17z" style="fill: #111918;"/>
<metadata><work rdf:about=""><format>image/svg+xml</format><type rdf:resource="http://purl.org/dc/dcmitype/StillImage"/><license rdf:resource="http://creativecommons.org/licenses/by/4.0/"/><attributionname>Shannon E Thomas</attributionname><attributionurl>http://www.toicon.com/icons/lines-and-angles_turn</attributionurl></work></metadata></svg>
