<?xml version="1.0" encoding="UTF-8"?>
<!-- Generator: Adobe Illustrator 19.1.0, SVG Export Plug-In . SVG Version: 6.00 Build 0)  -->
<svg xmlns="http://www.w3.org/2000/svg" xmlns:xlink="http://www.w3.org/1999/xlink" xmlns:dc="http://purl.org/dc/elements/1.1/" xmlns:cc="http://creativecommons.org/ns#" xmlns:rdf="http://www.w3.org/1999/02/22-rdf-syntax-ns#" version="1.1" id="DESIGNS" x="0px" y="0px" width="32px" height="32px" viewBox="0 0 32 32" style="enable-background:new 0 0 32 32;" xml:space="preserve">
<title property="dc:title">to film</title><desc property="dc:description">An icon for "film" from the Lines and Angles series on to [icon]. Downloaded from http://www.toicon.com/icons/lines-and-angles_film by 213.127.53.189 on 2018-05-09. Licensed CC-BY, see http://toicon.com/license/ for details.</desc>
<path class="linesandangles_een" d="M4,4v24h24V4H4z M20,6v5h-8V6H20z M12,13h8v6h-8V13z M6,26V6h4v20H6z M12,26v-5h8v5H12z M26,26  h-4V6h4V26z M25,9h-2V7h2V9z M25,13h-2v-2h2V13z M25,17h-2v-2h2V17z M25,21h-2v-2h2V21z M23,25v-2h2v2H23z M9,7v2H7V7H9z M7,11h2v2  H7V11z M7,15h2v2H7V15z M7,19h2v2H7V19z M7,23h2v2H7V23z" style="fill: #111918;"/>
<metadata><work rdf:about=""><format>image/svg+xml</format><type rdf:resource="http://purl.org/dc/dcmitype/StillImage"/><license rdf:resource="http://creativecommons.org/licenses/by/4.0/"/><attributionname>Shannon E Thomas</attributionname><attributionurl>http://www.toicon.com/icons/lines-and-angles_film</attributionurl></work></metadata></svg>
